# xmcd CD database file generated by Grip 2.96
# 
# Track frame offsets:
#       150
#       14162
#       28417
#       40445
#       55925
#       73260
#       89335
#       102795
#       116725
#       131515
# 
# Disc length: 1966 seconds
# 
# Revision: 0
# Processed by: cddbd v1.4PL0 Copyright (c) Steve Scherf et al.
# Submitted via: Grip 2.96
# 
DISCID=9407ac0a
DTITLE=Willie Nelson - Born For Trouble
DYEAR=1900
DGENRE=
TTITLE0=Ain't Necessarily So
TTITLE1=(I Don't Have A Reason) To Go To California Anymore
TTITLE2=Ten With A Two
TTITLE3=The Piper Came Today
TTITLE4=You Decide
TTITLE5=Pieces Of My Life
TTITLE6=It'll Come To Me
TTITLE7=This Is How Without You Goes
TTITLE8=Born For Trouble
TTITLE9=Little Things Mean A Lot
EXTD=
EXTT0=
EXTT1=
EXTT2=
EXTT3=
EXTT4=
EXTT5=
EXTT6=
EXTT7=
EXTT8=
EXTT9=
PLAYORDER=
